# xmcd CD database file
#
# Track frame offsets:
#	150
#	15070
#	33707
#	49125
#	68107
#	84117
#	112600
#	133215
#	154050
#	189440
#	204002
#	229327
#	247870
#	268750
#	294167
#	311322
#
# Disc length: 4440 seconds
#
# Revision: 0
# Processed by: cddbd v1.5.2PL0 Copyright (c) Steve Scherf et al.
# Submitted via: CDex 1.70beta2
#
DISCID=c1115610
DTITLE=Jensens New Orleans Jazzband - On The Bayou
DYEAR=1998
DGENRE=Jazz
TTITLE0=Jambalaya (On The Bayou)
TTITLE1=Bye, Bye Blackbird
TTITLE2=Avalon
TTITLE3=Eh La Bas
TTITLE4=Cottonfields
TTITLE5=Over The Waves
TTITLE6=Down By The Riverside
TTITLE7=Milenburg Joys
TTITLE8=In The Sweet Bye And Bye
TTITLE9=Joe Averys Piece
TTITLE10=In The Upper Garden
TTITLE11=Cats Got Kittens
TTITLE12=Bugle Boy March
TTITLE13=Milk Cow Blues
TTITLE14=Old Grey Bonnet
TTITLE15=Sail Along Silvery Moon
EXTD=YEAR: 1998
EXTT0=
EXTT1=
EXTT2=
EXTT3=
EXTT4=
EXTT5=
EXTT6=
EXTT7=
EXTT8=
EXTT9=
EXTT10=
EXTT11=
EXTT12=
EXTT13=
EXTT14=
EXTT15=
PLAYORDER=
